PathFileType	4	(X/Y/Z)	Patient4_TMGait_0pt2_01_left_06.trc.trc
DataRate	CameraRate	NumFrames	NumMarkers	Units	OrigDataRate	OrigDataStartFrame	OrigNumFrames
43.343653250774	43.343653250774	4	33	mm	43.343653250774	1	       141
Frame#	Time	Sacral			L.Shoulder			Chest			R.Shoulder			Neck			R.ASIS			L.ASIS			R.Thigh.Superior			R.Thigh.Lateral			R.Thigh.Inferior			R.Patella			L.Thigh.Superior			L.Thigh.Lateral			L.Thigh.Inferior			L.Patella			L.Shank.Superior			L.Shank.Lateral			L.Shank.Inferior			R.Shank.Superior			R.Shank.Lateral			R.Shank.Inferior			R.Heel			R.Midfoot.Superior			R.Midfoot.Lateral			R.Toe			L.Heel			L.Midfoot.Lateral			L.Midfoot.Superior			L.Toe			L.Elbow			L.Wrist			R.Elbow			R.Wrist			
		X1	Y1	Z1	X2	Y2	Z2	X3	Y3	Z3	X4	Y4	Z4	X5	Y5	Z5	X6	Y6	Z6	X7	Y7	Z7	X8	Y8	Z8	X9	Y9	Z9	X10	Y10	Z10	X11	Y11	Z11	X12	Y12	Z12	X13	Y13	Z13	X14	Y14	Z14	X15	Y15	Z15	X16	Y16	Z16	X17	Y17	Z17	X18	Y18	Z18	X19	Y19	Z19	X20	Y20	Z20	X21	Y21	Z21	X22	Y22	Z22	X23	Y23	Z23	X24	Y24	Z24	X25	Y25	Z25	X26	Y26	Z26	X27	Y27	Z27	X28	Y28	Z28	X29	Y29	Z29	X30	Y30	Z30	X31	Y31	Z31	X32	Y32	Z32	X33	Y33	Z33	

1	12.670000000000	812.050232318516	989.773191718553	565.905412635886	974.453579144697	1421.014894020601	374.305625747812	1070.444755296941	1366.608264770481	544.137985835239	970.513715017332	1438.679834228194	710.046097035583	947.714671526170	1487.783401952512	529.264868318011	1040.163063672988	943.801406423524	695.720387052461	1037.465532100344	954.072970995671	421.054973739472	1085.937255890622	740.167059208234	653.804994463663	1006.027355748118	622.467227417443	704.108703881919	1082.016542068449	576.680108879770	621.287793266479	1081.428950211283	483.802229796209	621.409955752503	1112.866016592237	755.847955945832	451.041908905532	1062.008481927513	633.685118016041	365.604877352017	1154.269640500417	562.390445051315	431.458054528049	1159.687693318661	474.815029269062	420.641906438461	1091.043824145156	413.688938975032	403.321014346642	953.524196800269	378.920162352516	341.726004564705	931.647959052856	247.021761690662	384.453868708444	1043.659704864404	395.283905520044	621.690825050507	962.662841276674	294.915346211149	676.760651748937	994.245288078210	201.526180475240	607.617213466412	844.976545678863	43.930859932185	570.618735713704	1015.532741757645	95.837470341015	609.576475408238	926.423940768111	37.709672003403	647.774633769873	1134.794975191299	43.077534674444	643.943378389574	740.683031317426	210.814739885039	407.965457881848	788.249217381830	149.924849957093	331.977594630051	890.775720036867	131.527491019212	356.294127102086	944.304039243076	29.442097238456	337.334033484491	973.452086165138	1063.444595169443	267.221696428531	1088.165393449348	828.118792000807	290.102020468784	986.776234289487	1101.591871057247	863.094887834078	1200.893236238067	952.237317460018	876.082109949134	
2	12.693071428571	810.384142996606	988.294338112811	570.100849233589	969.911452283569	1419.100464630634	375.621978861029	1068.586004365719	1364.960514682960	543.950002466406	971.595914227482	1437.466556775975	711.308872234424	945.739274718482	1486.194268526809	530.731442985518	1040.229017500957	942.250036952549	697.074795486848	1033.869062659585	952.731838477742	422.697990622368	1086.478966519326	738.905531315040	654.614953986612	1007.381912201743	620.770275916033	704.922195067014	1083.050636172434	575.492295023882	621.346497502264	1082.783618540576	482.021517200447	621.176834618595	1114.055690403573	759.528177305382	453.249592250249	1067.222481283335	636.519595842124	367.167050272473	1161.870939573650	567.775035725134	433.541114328994	1169.378386901566	479.459716394924	421.995805318948	1099.987256744485	417.828869891940	404.614198025429	960.809682064117	385.360892245189	345.104201542242	938.545678825478	252.955681663348	386.283623064139	1043.556154751128	393.687939348713	621.516115698564	961.709795847558	294.148494812198	676.990204970411	991.467313207253	200.596204592026	607.559575245138	840.408480538560	43.950509460943	570.670491517768	1011.200322821677	95.948312450393	609.847869973288	921.870798970511	37.678977316411	647.832259897731	1130.274687907330	42.842782699418	643.948155033111	748.897601271714	221.697942298445	412.912937198352	792.555067274593	159.375018719058	335.705698060354	894.848146973897	136.733312886720	357.798094239079	941.983134473939	27.891825337802	336.952435085746	957.233334078604	1061.570259150581	272.230907301481	1051.221964843241	820.514301507025	296.359422823858	1003.631207130480	1103.255229830276	864.765970967543	1225.874590652747	970.617252406613	872.253583318424	
3	12.716142857143	808.690121514528	986.835058810913	574.414862778196	965.225022096380	1417.234404768278	377.008367985499	1066.705256364162	1363.296246982349	543.713258689326	972.834586001930	1436.231707241346	712.590986973205	943.751366257007	1484.623547615728	532.260652742567	1040.282482197672	940.673915733590	698.349377141242	1030.099631564021	951.389263632961	424.272794265226	1086.891987314834	737.587681234409	655.354290703057	1008.600052267484	619.065343420593	705.735134257588	1083.924536251627	574.271921251968	621.395080689262	1083.920828488952	480.215144771623	620.932140518201	1114.991637832706	763.233277650639	455.454660992183	1072.235161401505	639.380716851033	368.794734184275	1169.217984599455	573.240471690216	435.652218846717	1178.849087106056	484.200984177129	423.355031038981	1108.783198871786	421.953095816886	406.009057479917	967.899575868208	391.457864103852	348.728976659385	945.515149467096	258.486551880289	388.500120610956	1043.258904620092	392.081826733525	621.344618256330	960.557242004474	293.366495806524	677.220025456853	988.488077743511	199.652091164379	607.500262929584	835.633369131203	43.975192555236	570.725426181345	1006.656090396354	96.054802029599	610.127330213875	917.117857972057	37.644148963399	647.896240385348	1125.553201549684	42.610249971757	643.956818743983	756.939047227351	231.019199100436	418.379269645677	797.224702552500	167.791426667041	339.815373035178	899.510427687666	141.788134069834	359.657815590400	941.349341362797	26.699149326274	336.587863242304	940.391456375060	1060.034229113901	277.156578528449	1013.735729488539	813.659504400459	302.915451686755	1021.254992656564	1105.283693184176	866.231538651931	1251.409390434877	990.219611675829	867.786479746727	
4	12.739214285714	807.014990603282	985.506572116843	578.716051275368	960.529816930601	1415.544567034955	378.436551929323	1064.878769248274	1361.701745644793	543.406651135531	974.267133863401	1435.046999808391	713.835674154687	941.839937409605	1483.171981360146	533.810890279763	1040.309867541749	939.145110944047	699.444990117988	1026.221129014499	950.137511324639	425.675942987576	1087.074958794801	736.260001097424	655.955085107339	1009.529733210482	617.441068664097	706.507696228924	1084.478426091318	573.066926600137	621.421198269515	1084.643827796086	478.467066306563	620.681756853536	1115.490952029175	766.822932274295	457.533687923212	1076.674623543512	642.160065218140	370.414256794536	1175.816909301486	578.574159437813	437.677513058297	1187.537236655074	488.890232269928	424.634429512111	1116.985448358445	425.890734812733	407.434371770048	974.485342655965	396.711987129898	352.446484113651	952.477500203732	263.133438293741	391.043363946297	1042.648726312112	390.547620655705	621.186953309038	959.131890091402	292.608652805817	677.443954648171	985.318831188360	198.740673260315	607.446065272726	830.750388572255	44.008270431298	570.781785401596	1001.999245517547	96.164226414040	610.427088422355	912.268182904915	37.605476623849	647.966434857159	1120.731164019761	42.389165012477	643.971497901839	764.718695961103	237.603806564019	424.163459177387	802.513622273209	174.257091939746	344.139874744529	905.052397591801	146.300298304372	361.820701339270	943.353059851393	25.987245464447	336.211031853111	923.390306967200	1059.063893678836	281.787897505924	977.086726188183	808.132821450830	309.606925414388	1039.232780122026	1107.772973687621	867.309844983802	1276.634201312927	1010.734824131445	862.566682913342	
